<svg xmlns="http://www.w3.org/2000/svg" xmlns:xlink="http://www.w3.org/1999/xlink" width="400" zoomAndPan="magnify" viewBox="0 0 300 74.999997" height="100" preserveAspectRatio="xMidYMid meet" version="1.0"><defs><g/><clipPath id="5ce1bddaf7"><path d="M 11.800781 18.1875 L 46.980469 18.1875 L 46.980469 53.363281 L 11.800781 53.363281 Z M 11.800781 18.1875 " clip-rule="nonzero"/></clipPath></defs><rect x="-30" width="360" fill="#ffffff" y="-7.5" height="89.999996" fill-opacity="1"/><rect x="-30" width="360" fill="#ffffff" y="-7.5" height="89.999996" fill-opacity="1"/><g clip-path="url(#5ce1bddaf7)"><path fill="#ec723b" d="M 29.390625 50.707031 C 21.15625 50.707031 14.460938 44.007812 14.460938 35.773438 C 14.460938 27.542969 21.15625 20.84375 29.390625 20.84375 C 37.625 20.84375 44.320312 27.542969 44.320312 35.773438 C 44.320312 44.007812 37.625 50.707031 29.390625 50.707031 Z M 41.828125 23.335938 C 38.503906 20.015625 34.089844 18.1875 29.390625 18.1875 C 24.691406 18.1875 20.273438 20.015625 16.953125 23.335938 C 13.632812 26.660156 11.800781 31.078125 11.800781 35.773438 C 11.800781 40.472656 13.632812 44.890625 16.953125 48.210938 C 20.273438 51.535156 24.691406 53.363281 29.390625 53.363281 C 34.089844 53.363281 38.503906 51.535156 41.828125 48.210938 C 45.148438 44.890625 46.980469 40.472656 46.980469 35.773438 C 46.980469 31.078125 45.148438 26.660156 41.828125 23.335938 " fill-opacity="1" fill-rule="nonzero"/></g><path fill="#ec723b" d="M 29.746094 36.027344 L 27.039062 36.027344 L 27.039062 31.027344 L 29.746094 31.027344 C 31.773438 31.027344 32.796875 31.949219 32.796875 33.527344 C 32.796875 35.085938 31.773438 36.027344 29.746094 36.027344 Z M 33.207031 38.054688 C 35.070312 37.257812 36.15625 35.679688 36.15625 33.527344 C 36.15625 30.3125 33.761719 28.324219 29.929688 28.324219 L 23.722656 28.324219 L 23.722656 42.664062 L 27.039062 42.664062 L 27.039062 38.667969 L 30.09375 38.667969 L 32.859375 42.664062 L 36.421875 42.664062 L 33.207031 38.054688 " fill-opacity="1" fill-rule="nonzero"/><g fill="#525252" fill-opacity="1"><g transform="translate(55.265627, 31.135708)"><g><path d="M 3.671875 -7.453125 L 3.671875 -8.796875 L 0.9375 -8.796875 L 0.9375 -9.6875 L 3.671875 -9.6875 L 3.671875 -10.875 L 4.625 -10.875 L 4.625 -9.6875 L 8.3125 -9.6875 L 8.3125 -10.875 L 9.25 -10.875 L 9.25 -9.6875 L 12.015625 -9.6875 L 12.015625 -8.796875 L 9.25 -8.796875 L 9.25 -7.453125 L 8.3125 -7.453125 L 8.3125 -8.796875 L 4.625 -8.796875 L 4.625 -7.453125 Z M 3.0625 -3.609375 L 5.890625 -3.609375 C 5.910156 -3.765625 5.925781 -3.921875 5.9375 -4.078125 C 5.945312 -4.234375 5.953125 -4.390625 5.953125 -4.546875 L 5.953125 -5.765625 L 3.0625 -5.765625 Z M 10 -5.765625 L 6.9375 -5.765625 L 6.9375 -4.53125 C 6.9375 -4.382812 6.929688 -4.226562 6.921875 -4.0625 C 6.921875 -3.90625 6.910156 -3.753906 6.890625 -3.609375 L 10 -3.609375 Z M 12.234375 -2.703125 L 7.390625 -2.703125 C 7.859375 -1.910156 8.523438 -1.28125 9.390625 -0.8125 C 10.253906 -0.34375 11.304688 -0.0195312 12.546875 0.15625 C 12.429688 0.257812 12.316406 0.394531 12.203125 0.5625 C 12.085938 0.738281 11.992188 0.894531 11.921875 1.03125 C 10.640625 0.800781 9.550781 0.410156 8.65625 -0.140625 C 7.769531 -0.691406 7.070312 -1.4375 6.5625 -2.375 C 6.363281 -1.925781 6.050781 -1.492188 5.625 -1.078125 C 5.207031 -0.660156 4.632812 -0.273438 3.90625 0.078125 C 3.1875 0.429688 2.257812 0.75 1.125 1.03125 C 1.070312 0.925781 0.988281 0.789062 0.875 0.625 C 0.757812 0.457031 0.648438 0.320312 0.546875 0.21875 C 1.628906 -0.0195312 2.507812 -0.289062 3.1875 -0.59375 C 3.875 -0.894531 4.40625 -1.222656 4.78125 -1.578125 C 5.164062 -1.941406 5.441406 -2.316406 5.609375 -2.703125 L 0.78125 -2.703125 L 0.78125 -3.609375 L 2.125 -3.609375 L 2.125 -6.640625 L 5.953125 -6.640625 L 5.953125 -8.140625 L 6.9375 -8.140625 L 6.9375 -6.640625 L 10.953125 -6.640625 L 10.953125 -3.609375 L 12.234375 -3.609375 Z M 12.234375 -2.703125 "/></g></g></g><g fill="#525252" fill-opacity="1"><g transform="translate(68.26164, 31.135708)"><g><path d="M 4.21875 -2.234375 L 4.34375 -1.484375 C 3.757812 -1.265625 3.175781 -1.046875 2.59375 -0.828125 C 2.019531 -0.617188 1.488281 -0.429688 1 -0.265625 L 0.65625 -1.09375 C 1.113281 -1.226562 1.65625 -1.394531 2.28125 -1.59375 C 2.914062 -1.800781 3.5625 -2.015625 4.21875 -2.234375 Z M 3.640625 -2.75 L 2.984375 -2.234375 C 2.867188 -2.441406 2.679688 -2.6875 2.421875 -2.96875 C 2.171875 -3.25 1.914062 -3.5 1.65625 -3.71875 L 2.28125 -4.1875 C 2.550781 -3.96875 2.8125 -3.722656 3.0625 -3.453125 C 3.3125 -3.191406 3.503906 -2.957031 3.640625 -2.75 Z M 2.109375 -5.375 L 6.03125 -5.375 C 6.03125 -5.375 6.023438 -5.316406 6.015625 -5.203125 C 6.015625 -5.085938 6.007812 -4.992188 6 -4.921875 C 5.9375 -3.703125 5.863281 -2.71875 5.78125 -1.96875 C 5.707031 -1.21875 5.617188 -0.644531 5.515625 -0.25 C 5.421875 0.132812 5.3125 0.40625 5.1875 0.5625 C 5.070312 0.695312 4.945312 0.789062 4.8125 0.84375 C 4.6875 0.90625 4.53125 0.945312 4.34375 0.96875 C 4.175781 0.976562 3.957031 0.976562 3.6875 0.96875 C 3.414062 0.96875 3.125 0.960938 2.8125 0.953125 C 2.800781 0.828125 2.773438 0.679688 2.734375 0.515625 C 2.691406 0.347656 2.632812 0.207031 2.5625 0.09375 C 2.851562 0.113281 3.125 0.128906 3.375 0.140625 C 3.625 0.148438 3.800781 0.15625 3.90625 0.15625 C 4.019531 0.15625 4.109375 0.144531 4.171875 0.125 C 4.242188 0.101562 4.3125 0.0625 4.375 0 C 4.46875 -0.113281 4.550781 -0.328125 4.625 -0.640625 C 4.707031 -0.960938 4.78125 -1.4375 4.84375 -2.0625 C 4.914062 -2.695312 4.976562 -3.519531 5.03125 -4.53125 L 1.9375 -4.53125 C 1.914062 -4.425781 1.890625 -4.320312 1.859375 -4.21875 C 1.835938 -4.125 1.820312 -4.03125 1.8125 -3.9375 L 0.890625 -4.09375 C 0.960938 -4.40625 1.039062 -4.765625 1.125 -5.171875 C 1.207031 -5.585938 1.285156 -6.015625 1.359375 -6.453125 C 1.429688 -6.890625 1.492188 -7.300781 1.546875 -7.6875 L 4.890625 -7.6875 L 4.890625 -9.515625 L 1.140625 -9.515625 L 1.140625 -10.390625 L 5.84375 -10.390625 L 5.84375 -6.8125 L 2.359375 -6.8125 C 2.328125 -6.570312 2.285156 -6.328125 2.234375 -6.078125 C 2.191406 -5.835938 2.148438 -5.601562 2.109375 -5.375 Z M 10.09375 -2.359375 L 10.25 -1.640625 C 9.632812 -1.398438 9.015625 -1.160156 8.390625 -0.921875 C 7.773438 -0.691406 7.222656 -0.488281 6.734375 -0.3125 L 6.375 -1.125 C 6.84375 -1.28125 7.40625 -1.460938 8.0625 -1.671875 C 8.726562 -1.890625 9.40625 -2.117188 10.09375 -2.359375 Z M 9.4375 -2.796875 L 8.75 -2.25 C 8.625 -2.476562 8.429688 -2.734375 8.171875 -3.015625 C 7.910156 -3.296875 7.644531 -3.546875 7.375 -3.765625 L 8.015625 -4.234375 C 8.285156 -4.015625 8.554688 -3.773438 8.828125 -3.515625 C 9.097656 -3.253906 9.300781 -3.015625 9.4375 -2.796875 Z M 7.75 -5.375 L 11.953125 -5.375 C 11.953125 -5.375 11.953125 -5.3125 11.953125 -5.1875 C 11.953125 -5.070312 11.945312 -4.976562 11.9375 -4.90625 C 11.882812 -3.6875 11.828125 -2.703125 11.765625 -1.953125 C 11.703125 -1.203125 11.625 -0.628906 11.53125 -0.234375 C 11.445312 0.148438 11.335938 0.414062 11.203125 0.5625 C 11.085938 0.695312 10.953125 0.796875 10.796875 0.859375 C 10.648438 0.921875 10.472656 0.957031 10.265625 0.96875 C 10.078125 0.988281 9.816406 0.992188 9.484375 0.984375 C 9.148438 0.984375 8.789062 0.972656 8.40625 0.953125 C 8.394531 0.828125 8.363281 0.679688 8.3125 0.515625 C 8.257812 0.347656 8.195312 0.210938 8.125 0.109375 C 8.507812 0.140625 8.859375 0.160156 9.171875 0.171875 C 9.492188 0.179688 9.722656 0.1875 9.859375 0.1875 C 9.984375 0.1875 10.082031 0.171875 10.15625 0.140625 C 10.238281 0.117188 10.3125 0.0820312 10.375 0.03125 C 10.46875 -0.0703125 10.550781 -0.285156 10.625 -0.609375 C 10.695312 -0.941406 10.757812 -1.421875 10.8125 -2.046875 C 10.875 -2.679688 10.929688 -3.507812 10.984375 -4.53125 L 7.578125 -4.53125 L 7.453125 -3.96875 L 6.5 -4.109375 C 6.582031 -4.421875 6.664062 -4.78125 6.75 -5.1875 C 6.84375 -5.601562 6.929688 -6.03125 7.015625 -6.46875 C 7.097656 -6.90625 7.171875 -7.3125 7.234375 -7.6875 L 10.796875 -7.6875 L 10.796875 -9.515625 L 6.890625 -9.515625 L 6.890625 -10.390625 L 11.765625 -10.390625 L 11.765625 -6.8125 L 8.03125 -6.8125 C 7.988281 -6.570312 7.941406 -6.328125 7.890625 -6.078125 C 7.847656 -5.835938 7.800781 -5.601562 7.75 -5.375 Z M 7.75 -5.375 "/></g></g></g><g fill="#525252" fill-opacity="1"><g transform="translate(81.257652, 31.135708)"><g><path d="M 8.09375 -2.25 L 4.90625 -2.25 L 4.90625 -0.921875 L 8.09375 -0.921875 Z M 8.953125 -0.203125 L 4.90625 -0.203125 L 4.90625 0.4375 L 4.046875 0.4375 L 4.046875 -2.953125 L 8.953125 -2.953125 Z M 11.609375 -4.609375 L 11.609375 -0.15625 C 11.609375 0.101562 11.570312 0.304688 11.5 0.453125 C 11.425781 0.609375 11.289062 0.726562 11.09375 0.8125 C 10.875 0.882812 10.585938 0.925781 10.234375 0.9375 C 9.890625 0.957031 9.445312 0.96875 8.90625 0.96875 C 8.875 0.832031 8.832031 0.675781 8.78125 0.5 C 8.726562 0.332031 8.664062 0.1875 8.59375 0.0625 C 9.007812 0.0703125 9.382812 0.078125 9.71875 0.078125 C 10.050781 0.078125 10.273438 0.0703125 10.390625 0.0625 C 10.503906 0.0625 10.570312 0.0390625 10.59375 0 C 10.625 -0.03125 10.640625 -0.09375 10.640625 -0.1875 L 10.640625 -3.78125 L 2.390625 -3.78125 L 2.390625 0.984375 L 1.46875 0.984375 L 1.46875 -4.609375 Z M 9.015625 -6.125 L 9.015625 -7.390625 L 3.953125 -7.390625 L 3.953125 -6.125 Z M 3.03125 -8.078125 L 9.984375 -8.078125 L 9.984375 -5.421875 L 3.03125 -5.421875 Z M 6.921875 -9.640625 L 12.109375 -9.640625 L 12.109375 -8.796875 L 0.890625 -8.796875 L 0.890625 -9.640625 L 5.9375 -9.640625 L 5.9375 -10.875 L 6.921875 -10.875 Z M 6.921875 -9.640625 "/></g></g></g><g fill="#525252" fill-opacity="1"><g transform="translate(94.253664, 31.135708)"><g><path d="M 12.296875 -8.96875 L 12.296875 -8.078125 L 5.21875 -8.078125 L 5.21875 -8.96875 L 8.25 -8.96875 L 8.25 -10.875 L 9.203125 -10.875 L 9.203125 -8.96875 Z M 9.609375 -7.3125 L 10.359375 -7.71875 C 10.640625 -7.445312 10.921875 -7.144531 11.203125 -6.8125 C 11.484375 -6.476562 11.738281 -6.148438 11.96875 -5.828125 C 12.207031 -5.515625 12.394531 -5.226562 12.53125 -4.96875 L 11.71875 -4.5 C 11.59375 -4.757812 11.414062 -5.050781 11.1875 -5.375 C 10.96875 -5.707031 10.71875 -6.039062 10.4375 -6.375 C 10.164062 -6.71875 9.890625 -7.03125 9.609375 -7.3125 Z M 6.921875 -7.6875 L 7.796875 -7.328125 C 7.523438 -6.796875 7.195312 -6.269531 6.8125 -5.75 C 6.425781 -5.226562 6.015625 -4.773438 5.578125 -4.390625 C 5.503906 -4.484375 5.398438 -4.585938 5.265625 -4.703125 C 5.128906 -4.828125 5.007812 -4.921875 4.90625 -4.984375 C 5.320312 -5.335938 5.707031 -5.757812 6.0625 -6.25 C 6.425781 -6.75 6.710938 -7.226562 6.921875 -7.6875 Z M 5.21875 -3.828125 L 4.671875 -3.09375 C 4.554688 -3.320312 4.382812 -3.625 4.15625 -4 C 3.9375 -4.375 3.722656 -4.726562 3.515625 -5.0625 L 3.515625 0.96875 L 2.609375 0.96875 L 2.609375 -5.0625 C 2.390625 -4.351562 2.140625 -3.675781 1.859375 -3.03125 C 1.578125 -2.394531 1.28125 -1.863281 0.96875 -1.4375 C 0.914062 -1.570312 0.835938 -1.71875 0.734375 -1.875 C 0.640625 -2.039062 0.550781 -2.179688 0.46875 -2.296875 C 0.75 -2.660156 1.015625 -3.109375 1.265625 -3.640625 C 1.523438 -4.179688 1.765625 -4.757812 1.984375 -5.375 C 2.210938 -6 2.390625 -6.609375 2.515625 -7.203125 L 0.71875 -7.203125 L 0.71875 -8.09375 L 2.609375 -8.09375 L 2.609375 -10.875 L 3.515625 -10.875 L 3.515625 -8.09375 L 5.09375 -8.09375 L 5.09375 -7.203125 L 3.515625 -7.203125 L 3.515625 -6.21875 C 3.617188 -6.09375 3.75 -5.921875 3.90625 -5.703125 C 4.070312 -5.484375 4.242188 -5.242188 4.421875 -4.984375 C 4.597656 -4.734375 4.757812 -4.503906 4.90625 -4.296875 C 5.050781 -4.085938 5.15625 -3.929688 5.21875 -3.828125 Z M 9.9375 -5.40625 L 10.90625 -5.203125 C 10.726562 -4.617188 10.503906 -4.054688 10.234375 -3.515625 C 9.972656 -2.984375 9.664062 -2.484375 9.3125 -2.015625 C 9.757812 -1.523438 10.253906 -1.09375 10.796875 -0.71875 C 11.335938 -0.34375 11.921875 -0.0390625 12.546875 0.1875 C 12.429688 0.269531 12.304688 0.394531 12.171875 0.5625 C 12.046875 0.726562 11.945312 0.878906 11.875 1.015625 C 11.269531 0.765625 10.703125 0.441406 10.171875 0.046875 C 9.640625 -0.335938 9.148438 -0.78125 8.703125 -1.28125 C 8.242188 -0.800781 7.726562 -0.367188 7.15625 0.015625 C 6.582031 0.410156 5.9375 0.75 5.21875 1.03125 C 5.15625 0.925781 5.070312 0.796875 4.96875 0.640625 C 4.875 0.484375 4.785156 0.359375 4.703125 0.265625 C 5.410156 0.00390625 6.046875 -0.316406 6.609375 -0.703125 C 7.179688 -1.085938 7.6875 -1.519531 8.125 -2 C 7.445312 -2.90625 6.90625 -3.9375 6.5 -5.09375 L 7.328125 -5.328125 C 7.503906 -4.859375 7.703125 -4.40625 7.921875 -3.96875 C 8.148438 -3.539062 8.410156 -3.132812 8.703125 -2.75 C 8.992188 -3.15625 9.238281 -3.578125 9.4375 -4.015625 C 9.644531 -4.460938 9.8125 -4.925781 9.9375 -5.40625 Z M 9.9375 -5.40625 "/></g></g></g><g fill="#525252" fill-opacity="1"><g transform="translate(107.249677, 31.135708)"><g><path d="M 7.015625 -0.34375 L 12.28125 -0.34375 L 12.28125 0.578125 L 0.765625 0.578125 L 0.765625 -0.34375 L 6.03125 -0.34375 L 6.03125 -3.65625 L 2.171875 -3.65625 L 2.171875 -4.59375 L 6.03125 -4.59375 L 6.03125 -7.421875 L 2.984375 -7.421875 C 2.773438 -7.015625 2.554688 -6.632812 2.328125 -6.28125 C 2.097656 -5.925781 1.859375 -5.597656 1.609375 -5.296875 C 1.523438 -5.378906 1.390625 -5.476562 1.203125 -5.59375 C 1.023438 -5.71875 0.867188 -5.8125 0.734375 -5.875 C 1.273438 -6.445312 1.75 -7.15625 2.15625 -8 C 2.5625 -8.851562 2.890625 -9.738281 3.140625 -10.65625 L 4.125 -10.453125 C 4.019531 -10.097656 3.90625 -9.742188 3.78125 -9.390625 C 3.664062 -9.035156 3.535156 -8.695312 3.390625 -8.375 L 6.03125 -8.375 L 6.03125 -10.875 L 7.015625 -10.875 L 7.015625 -8.375 L 11.671875 -8.375 L 11.671875 -7.421875 L 7.015625 -7.421875 L 7.015625 -4.59375 L 11.1875 -4.59375 L 11.1875 -3.65625 L 7.015625 -3.65625 Z M 7.015625 -0.34375 "/></g></g></g><g fill="#525252" fill-opacity="1"><g transform="translate(120.245689, 31.135708)"><g><path d="M 2.6875 -1.421875 L 3.40625 -1.9375 C 3.65625 -1.769531 3.910156 -1.582031 4.171875 -1.375 C 4.441406 -1.164062 4.6875 -0.957031 4.90625 -0.75 C 5.132812 -0.539062 5.320312 -0.347656 5.46875 -0.171875 L 4.703125 0.421875 C 4.578125 0.234375 4.398438 0.0351562 4.171875 -0.171875 C 3.953125 -0.390625 3.710938 -0.609375 3.453125 -0.828125 C 3.191406 -1.046875 2.9375 -1.242188 2.6875 -1.421875 Z M 2.90625 -5.6875 L 2.90625 -4.625 L 6 -4.625 L 6 -5.6875 Z M 2.90625 -7.421875 L 2.90625 -6.375 L 6 -6.375 L 6 -7.421875 Z M 10.109375 -7.421875 L 6.921875 -7.421875 L 6.921875 -6.375 L 10.109375 -6.375 Z M 10.109375 -4.625 L 10.109375 -5.6875 L 6.921875 -5.6875 L 6.921875 -4.625 Z M 12.296875 -2.90625 L 12.296875 -2.078125 L 9.359375 -2.078125 L 9.359375 -0.03125 C 9.359375 0.238281 9.320312 0.441406 9.25 0.578125 C 9.175781 0.710938 9.03125 0.816406 8.8125 0.890625 C 8.59375 0.953125 8.300781 0.988281 7.9375 1 C 7.582031 1.019531 7.128906 1.03125 6.578125 1.03125 C 6.546875 0.90625 6.5 0.757812 6.4375 0.59375 C 6.382812 0.4375 6.320312 0.300781 6.25 0.1875 C 6.6875 0.1875 7.082031 0.1875 7.4375 0.1875 C 7.789062 0.195312 8.019531 0.195312 8.125 0.1875 C 8.238281 0.1875 8.316406 0.164062 8.359375 0.125 C 8.398438 0.09375 8.421875 0.0351562 8.421875 -0.046875 L 8.421875 -2.078125 L 0.71875 -2.078125 L 0.71875 -2.90625 L 8.421875 -2.90625 L 8.421875 -3.90625 L 1.984375 -3.90625 L 1.984375 -8.125 L 6 -8.125 L 6 -9.015625 L 1.046875 -9.015625 L 1.046875 -9.84375 L 6 -9.84375 L 6 -10.859375 L 6.921875 -10.859375 L 6.921875 -9.84375 L 12 -9.84375 L 12 -9.015625 L 6.921875 -9.015625 L 6.921875 -8.125 L 11.0625 -8.125 L 11.0625 -3.90625 L 9.359375 -3.90625 L 9.359375 -2.90625 Z M 12.296875 -2.90625 "/></g></g></g><g fill="#525252" fill-opacity="1"><g transform="translate(133.241702, 31.135708)"><g><path d="M 4.9375 -9.453125 L 2.1875 -9.453125 L 2.1875 -8.3125 L 4.9375 -8.3125 Z M 2.1875 -6.328125 L 4.9375 -6.328125 L 4.9375 -7.578125 L 2.1875 -7.578125 Z M 5.84375 -10.265625 L 5.84375 -5.53125 L 2.1875 -5.53125 L 2.1875 0.984375 L 1.234375 0.984375 L 1.234375 -10.265625 Z M 7.984375 -6.3125 L 10.875 -6.3125 L 10.875 -7.578125 L 7.984375 -7.578125 Z M 10.875 -9.453125 L 7.984375 -9.453125 L 7.984375 -8.3125 L 10.875 -8.3125 Z M 11.84375 -10.265625 L 11.84375 -0.34375 C 11.84375 -0.0078125 11.796875 0.238281 11.703125 0.40625 C 11.609375 0.582031 11.457031 0.710938 11.25 0.796875 C 11.019531 0.867188 10.707031 0.914062 10.3125 0.9375 C 9.925781 0.957031 9.441406 0.96875 8.859375 0.96875 C 8.828125 0.832031 8.773438 0.664062 8.703125 0.46875 C 8.640625 0.28125 8.570312 0.113281 8.5 -0.03125 C 8.945312 0 9.363281 0.015625 9.75 0.015625 C 10.132812 0.015625 10.398438 0.0078125 10.546875 0 C 10.660156 -0.0078125 10.742188 -0.0351562 10.796875 -0.078125 C 10.847656 -0.117188 10.875 -0.207031 10.875 -0.34375 L 10.875 -5.515625 L 7.0625 -5.515625 L 7.0625 -10.265625 Z M 11.84375 -10.265625 "/></g></g></g><g fill="#525252" fill-opacity="1"><g transform="translate(55.265627, 50.449924)"><g><path d="M 8.53125 -7.828125 L 10.5625 -7.828125 C 10.738281 -7.828125 10.9375 -7.832031 11.15625 -7.84375 C 11.375 -7.863281 11.546875 -7.882812 11.671875 -7.90625 L 11.671875 -6.8125 C 11.523438 -6.820312 11.347656 -6.828125 11.140625 -6.828125 C 10.941406 -6.835938 10.765625 -6.84375 10.609375 -6.84375 L 8.546875 -6.84375 C 8.554688 -6.1875 8.566406 -5.484375 8.578125 -4.734375 C 8.585938 -3.992188 8.597656 -3.269531 8.609375 -2.5625 C 8.617188 -1.851562 8.625 -1.222656 8.625 -0.671875 C 8.625 0.015625 8.234375 0.359375 7.453125 0.359375 C 7.117188 0.359375 6.765625 0.351562 6.390625 0.34375 C 6.023438 0.332031 5.6875 0.3125 5.375 0.28125 L 5.28125 -0.78125 C 5.59375 -0.726562 5.914062 -0.6875 6.25 -0.65625 C 6.582031 -0.632812 6.867188 -0.625 7.109375 -0.625 C 7.296875 -0.625 7.421875 -0.664062 7.484375 -0.75 C 7.554688 -0.84375 7.59375 -0.972656 7.59375 -1.140625 C 7.59375 -1.484375 7.585938 -1.914062 7.578125 -2.4375 C 7.578125 -2.957031 7.570312 -3.507812 7.5625 -4.09375 C 7.5625 -4.6875 7.554688 -5.273438 7.546875 -5.859375 C 7.285156 -5.484375 6.945312 -5.078125 6.53125 -4.640625 C 6.125 -4.203125 5.671875 -3.757812 5.171875 -3.3125 C 4.679688 -2.875 4.15625 -2.453125 3.59375 -2.046875 C 3.03125 -1.648438 2.457031 -1.296875 1.875 -0.984375 L 1.125 -1.828125 C 1.789062 -2.148438 2.425781 -2.515625 3.03125 -2.921875 C 3.632812 -3.335938 4.195312 -3.769531 4.71875 -4.21875 C 5.238281 -4.675781 5.695312 -5.128906 6.09375 -5.578125 C 6.5 -6.023438 6.832031 -6.445312 7.09375 -6.84375 L 2.8125 -6.84375 C 2.40625 -6.84375 2 -6.828125 1.59375 -6.796875 L 1.59375 -7.90625 C 1.976562 -7.851562 2.378906 -7.828125 2.796875 -7.828125 L 7.53125 -7.828125 C 7.519531 -8.085938 7.507812 -8.320312 7.5 -8.53125 C 7.5 -8.75 7.492188 -8.9375 7.484375 -9.09375 C 7.472656 -9.25 7.460938 -9.421875 7.453125 -9.609375 C 7.441406 -9.796875 7.414062 -9.984375 7.375 -10.171875 L 8.578125 -10.171875 C 8.523438 -9.816406 8.5 -9.457031 8.5 -9.09375 Z M 8.53125 -7.828125 "/></g></g></g><g fill="#525252" fill-opacity="1"><g transform="translate(68.26164, 50.449924)"><g><path d="M 2.953125 -9.53125 C 3.179688 -9.375 3.445312 -9.179688 3.75 -8.953125 C 4.0625 -8.734375 4.375 -8.492188 4.6875 -8.234375 C 5 -7.972656 5.296875 -7.71875 5.578125 -7.46875 C 5.859375 -7.226562 6.085938 -7.019531 6.265625 -6.84375 L 5.453125 -6.015625 C 5.285156 -6.191406 5.066406 -6.398438 4.796875 -6.640625 C 4.535156 -6.878906 4.25 -7.128906 3.9375 -7.390625 C 3.632812 -7.648438 3.332031 -7.894531 3.03125 -8.125 C 2.726562 -8.363281 2.453125 -8.566406 2.203125 -8.734375 Z M 1.828125 -0.8125 C 2.960938 -0.988281 3.957031 -1.253906 4.8125 -1.609375 C 5.675781 -1.960938 6.414062 -2.332031 7.03125 -2.71875 C 7.695312 -3.144531 8.3125 -3.625 8.875 -4.15625 C 9.4375 -4.695312 9.929688 -5.253906 10.359375 -5.828125 C 10.785156 -6.410156 11.125 -6.96875 11.375 -7.5 L 12 -6.390625 C 11.707031 -5.859375 11.34375 -5.3125 10.90625 -4.75 C 10.46875 -4.195312 9.976562 -3.664062 9.4375 -3.15625 C 8.894531 -2.644531 8.289062 -2.1875 7.625 -1.78125 C 6.976562 -1.363281 6.234375 -0.96875 5.390625 -0.59375 C 4.554688 -0.226562 3.597656 0.0507812 2.515625 0.25 Z M 1.828125 -0.8125 "/></g></g></g><g fill="#525252" fill-opacity="1"><g transform="translate(81.257652, 50.449924)"><g><path d="M 10.671875 -6.71875 L 11.40625 -6.25 C 11.375 -6.1875 11.34375 -6.117188 11.3125 -6.046875 C 11.28125 -5.972656 11.257812 -5.914062 11.25 -5.875 C 11.070312 -5.226562 10.832031 -4.582031 10.53125 -3.9375 C 10.226562 -3.300781 9.832031 -2.71875 9.34375 -2.1875 C 8.65625 -1.4375 7.910156 -0.851562 7.109375 -0.4375 C 6.316406 -0.0195312 5.507812 0.300781 4.6875 0.53125 L 3.890625 -0.390625 C 4.816406 -0.578125 5.671875 -0.875 6.453125 -1.28125 C 7.234375 -1.6875 7.90625 -2.179688 8.46875 -2.765625 C 8.863281 -3.179688 9.191406 -3.644531 9.453125 -4.15625 C 9.710938 -4.675781 9.898438 -5.171875 10.015625 -5.640625 L 3.109375 -5.640625 C 2.953125 -5.640625 2.757812 -5.632812 2.53125 -5.625 C 2.300781 -5.625 2.070312 -5.617188 1.84375 -5.609375 L 1.84375 -6.6875 C 2.3125 -6.632812 2.734375 -6.609375 3.109375 -6.609375 L 9.953125 -6.609375 C 10.097656 -6.609375 10.234375 -6.617188 10.359375 -6.640625 C 10.492188 -6.660156 10.597656 -6.6875 10.671875 -6.71875 Z M 3 -8.609375 L 3 -9.6875 C 3.175781 -9.65625 3.363281 -9.632812 3.5625 -9.625 C 3.757812 -9.625 3.960938 -9.625 4.171875 -9.625 L 9.28125 -9.625 C 9.488281 -9.625 9.695312 -9.625 9.90625 -9.625 C 10.125 -9.632812 10.3125 -9.65625 10.46875 -9.6875 L 10.46875 -8.609375 C 10.3125 -8.617188 10.128906 -8.625 9.921875 -8.625 C 9.710938 -8.632812 9.492188 -8.640625 9.265625 -8.640625 L 4.171875 -8.640625 C 3.742188 -8.640625 3.351562 -8.628906 3 -8.609375 Z M 3 -8.609375 "/></g></g></g><g fill="#525252" fill-opacity="1"><g transform="translate(94.253664, 50.449924)"><g><path d="M 10.328125 -10.15625 L 11.1875 -9.375 C 10.738281 -8.925781 10.210938 -8.445312 9.609375 -7.9375 C 9.003906 -7.4375 8.367188 -6.972656 7.703125 -6.546875 L 7.703125 -0.984375 C 7.703125 -0.742188 7.707031 -0.484375 7.71875 -0.203125 C 7.738281 0.0664062 7.757812 0.269531 7.78125 0.40625 L 6.515625 0.40625 C 6.523438 0.28125 6.539062 0.078125 6.5625 -0.203125 C 6.582031 -0.484375 6.59375 -0.742188 6.59375 -0.984375 L 6.59375 -5.90625 C 5.894531 -5.519531 5.117188 -5.144531 4.265625 -4.78125 C 3.410156 -4.425781 2.554688 -4.125 1.703125 -3.875 L 1.109375 -4.890625 C 1.835938 -5.054688 2.550781 -5.269531 3.25 -5.53125 C 3.957031 -5.789062 4.625 -6.070312 5.25 -6.375 C 5.882812 -6.6875 6.441406 -6.988281 6.921875 -7.28125 C 7.359375 -7.5625 7.789062 -7.863281 8.21875 -8.1875 C 8.65625 -8.507812 9.054688 -8.84375 9.421875 -9.1875 C 9.785156 -9.53125 10.085938 -9.851562 10.328125 -10.15625 Z M 10.328125 -10.15625 "/></g></g></g><g fill="#525252" fill-opacity="1"><g transform="translate(107.249677, 50.449924)"><g><path d="M 2.953125 -9.53125 C 3.179688 -9.375 3.445312 -9.179688 3.75 -8.953125 C 4.0625 -8.734375 4.375 -8.492188 4.6875 -8.234375 C 5 -7.972656 5.296875 -7.71875 5.578125 -7.46875 C 5.859375 -7.226562 6.085938 -7.019531 6.265625 -6.84375 L 5.453125 -6.015625 C 5.285156 -6.191406 5.066406 -6.398438 4.796875 -6.640625 C 4.535156 -6.878906 4.25 -7.128906 3.9375 -7.390625 C 3.632812 -7.648438 3.332031 -7.894531 3.03125 -8.125 C 2.726562 -8.363281 2.453125 -8.566406 2.203125 -8.734375 Z M 1.828125 -0.8125 C 2.960938 -0.988281 3.957031 -1.253906 4.8125 -1.609375 C 5.675781 -1.960938 6.414062 -2.332031 7.03125 -2.71875 C 7.695312 -3.144531 8.3125 -3.625 8.875 -4.15625 C 9.4375 -4.695312 9.929688 -5.253906 10.359375 -5.828125 C 10.785156 -6.410156 11.125 -6.96875 11.375 -7.5 L 12 -6.390625 C 11.707031 -5.859375 11.34375 -5.3125 10.90625 -4.75 C 10.46875 -4.195312 9.976562 -3.664062 9.4375 -3.15625 C 8.894531 -2.644531 8.289062 -2.1875 7.625 -1.78125 C 6.976562 -1.363281 6.234375 -0.96875 5.390625 -0.59375 C 4.554688 -0.226562 3.597656 0.0507812 2.515625 0.25 Z M 1.828125 -0.8125 "/></g></g></g><g fill="#525252" fill-opacity="1"><g transform="translate(120.245689, 50.449924)"><g><path d="M 6.46875 -9.9375 L 6.46875 -9.25 L 0.71875 -9.25 L 0.71875 -9.9375 L 3.15625 -9.9375 L 3.15625 -10.875 L 4.0625 -10.875 L 4.0625 -9.9375 Z M 2.171875 -8.21875 L 2.171875 -7.5 L 4.984375 -7.5 L 4.984375 -8.21875 Z M 5.859375 -6.9375 L 1.328125 -6.9375 L 1.328125 -8.78125 L 5.859375 -8.78125 Z M 3.21875 -3.453125 L 3.21875 -4.3125 C 2.75 -4.300781 2.296875 -4.285156 1.859375 -4.265625 C 1.421875 -4.242188 1.019531 -4.226562 0.65625 -4.21875 L 0.609375 -4.90625 C 0.960938 -4.914062 1.359375 -4.925781 1.796875 -4.9375 C 2.242188 -4.957031 2.71875 -4.972656 3.21875 -4.984375 L 3.21875 -5.375 L 3.734375 -5.375 C 3.847656 -5.457031 3.96875 -5.539062 4.09375 -5.625 C 4.226562 -5.707031 4.351562 -5.789062 4.46875 -5.875 L 1.40625 -5.875 L 1.40625 -6.484375 L 5.25 -6.484375 L 5.4375 -6.53125 L 5.953125 -6.09375 C 5.710938 -5.90625 5.441406 -5.71875 5.140625 -5.53125 C 4.835938 -5.34375 4.546875 -5.171875 4.265625 -5.015625 C 4.648438 -5.035156 5.035156 -5.050781 5.421875 -5.0625 C 5.804688 -5.082031 6.191406 -5.097656 6.578125 -5.109375 L 6.5625 -4.453125 C 6.144531 -4.441406 5.726562 -4.425781 5.3125 -4.40625 C 4.894531 -4.382812 4.476562 -4.363281 4.0625 -4.34375 L 4.0625 -3.4375 C 4.0625 -3.21875 4.03125 -3.0625 3.96875 -2.96875 C 3.914062 -2.875 3.800781 -2.796875 3.625 -2.734375 C 3.457031 -2.679688 3.238281 -2.648438 2.96875 -2.640625 C 2.695312 -2.628906 2.359375 -2.625 1.953125 -2.625 C 1.921875 -2.726562 1.878906 -2.835938 1.828125 -2.953125 C 1.773438 -3.078125 1.726562 -3.1875 1.6875 -3.28125 C 2.007812 -3.269531 2.289062 -3.265625 2.53125 -3.265625 C 2.78125 -3.265625 2.941406 -3.269531 3.015625 -3.28125 C 3.097656 -3.28125 3.148438 -3.289062 3.171875 -3.3125 C 3.203125 -3.34375 3.21875 -3.390625 3.21875 -3.453125 Z M 6.953125 -1.375 L 6.953125 -0.1875 L 12.359375 -0.1875 L 12.359375 0.625 L 0.65625 0.625 L 0.65625 -0.1875 L 6 -0.1875 L 6 -1.375 L 1.84375 -1.375 L 1.84375 -2.15625 L 6 -2.15625 L 6 -3.015625 L 6.53125 -3.015625 C 6.46875 -3.109375 6.378906 -3.207031 6.265625 -3.3125 C 6.160156 -3.425781 6.0625 -3.515625 5.96875 -3.578125 C 6.425781 -3.929688 6.800781 -4.304688 7.09375 -4.703125 C 7.394531 -5.109375 7.625 -5.519531 7.78125 -5.9375 C 7.570312 -6.09375 7.359375 -6.242188 7.140625 -6.390625 C 6.921875 -6.535156 6.707031 -6.671875 6.5 -6.796875 L 6.984375 -7.40625 C 7.148438 -7.3125 7.320312 -7.207031 7.5 -7.09375 C 7.6875 -6.976562 7.863281 -6.863281 8.03125 -6.75 C 8.101562 -7.007812 8.15625 -7.265625 8.1875 -7.515625 C 8.21875 -7.765625 8.234375 -8.007812 8.234375 -8.25 L 6.65625 -8.25 L 6.65625 -9.09375 L 8.25 -9.09375 L 8.25 -10.734375 L 9.09375 -10.734375 L 9.09375 -9.09375 L 11.15625 -9.09375 C 11.15625 -8.320312 11.160156 -7.601562 11.171875 -6.9375 C 11.179688 -6.269531 11.203125 -5.6875 11.234375 -5.1875 C 11.265625 -4.695312 11.320312 -4.316406 11.40625 -4.046875 C 11.5 -3.773438 11.625 -3.640625 11.78125 -3.640625 C 11.863281 -3.640625 11.921875 -3.800781 11.953125 -4.125 C 11.992188 -4.445312 12.019531 -4.84375 12.03125 -5.3125 C 12.113281 -5.226562 12.207031 -5.132812 12.3125 -5.03125 C 12.425781 -4.925781 12.519531 -4.847656 12.59375 -4.796875 C 12.5625 -4.066406 12.488281 -3.550781 12.375 -3.25 C 12.257812 -2.945312 12.035156 -2.796875 11.703125 -2.796875 C 11.273438 -2.796875 10.960938 -3.023438 10.765625 -3.484375 C 10.578125 -3.953125 10.453125 -4.59375 10.390625 -5.40625 C 10.335938 -6.226562 10.304688 -7.175781 10.296875 -8.25 L 9.09375 -8.25 C 9.082031 -7.9375 9.050781 -7.609375 9 -7.265625 C 8.945312 -6.921875 8.875 -6.578125 8.78125 -6.234375 C 9.03125 -6.046875 9.257812 -5.863281 9.46875 -5.6875 C 9.675781 -5.507812 9.859375 -5.34375 10.015625 -5.1875 L 9.484375 -4.5 C 9.367188 -4.632812 9.222656 -4.773438 9.046875 -4.921875 C 8.867188 -5.078125 8.679688 -5.238281 8.484375 -5.40625 C 8.304688 -4.976562 8.066406 -4.5625 7.765625 -4.15625 C 7.472656 -3.75 7.097656 -3.367188 6.640625 -3.015625 L 6.953125 -3.015625 L 6.953125 -2.15625 L 11.265625 -2.15625 L 11.265625 -1.375 Z M 6.953125 -1.375 "/></g></g></g><g fill="#ec723b" fill-opacity="1"><g transform="translate(157.581293, 51.189347)"><g><path d="M 27.125 -22.296875 C 27.125 -20.441406 26.8125 -18.882812 26.1875 -17.625 C 25.5625 -16.375 24.71875 -15.367188 23.65625 -14.609375 C 22.59375 -13.847656 21.398438 -13.300781 20.078125 -12.96875 C 18.765625 -12.632812 17.425781 -12.46875 16.0625 -12.46875 L 8.96875 -12.46875 L 8.96875 -15.5625 L 15.828125 -15.5625 C 17.953125 -15.5625 19.566406 -15.882812 20.671875 -16.53125 C 21.785156 -17.1875 22.550781 -18.03125 22.96875 -19.0625 C 23.394531 -20.09375 23.609375 -21.171875 23.609375 -22.296875 C 23.609375 -24.566406 22.894531 -26.207031 21.46875 -27.21875 C 20.050781 -28.238281 18.171875 -28.75 15.828125 -28.75 L 8.96875 -28.75 L 8.96875 -31.84375 L 16.0625 -31.84375 C 17.363281 -31.84375 18.664062 -31.691406 19.96875 -31.390625 C 21.28125 -31.085938 22.472656 -30.570312 23.546875 -29.84375 C 24.617188 -29.113281 25.484375 -28.132812 26.140625 -26.90625 C 26.796875 -25.6875 27.125 -24.148438 27.125 -22.296875 Z M 7.375 0 L 5.234375 0 C 4.960938 0 4.769531 -0.0390625 4.65625 -0.125 C 4.550781 -0.21875 4.5 -0.421875 4.5 -0.734375 L 4.5 -31.125 C 4.5 -31.601562 4.742188 -31.84375 5.234375 -31.84375 L 8.09375 -31.84375 L 8.09375 -0.734375 C 8.09375 -0.421875 8.039062 -0.21875 7.9375 -0.125 C 7.832031 -0.0390625 7.644531 0 7.375 0 Z M 16.796875 -11.734375 L 17.5625 -11.734375 C 18.132812 -11.734375 18.671875 -11.765625 19.171875 -11.828125 C 19.671875 -11.890625 20.117188 -11.984375 20.515625 -12.109375 L 28.53125 -0.859375 C 28.738281 -0.554688 28.765625 -0.335938 28.609375 -0.203125 C 28.460938 -0.0664062 28.253906 0 27.984375 0 L 25.84375 0 C 25.351562 0 24.941406 -0.242188 24.609375 -0.734375 Z M 16.796875 -11.734375 "/></g></g></g><g fill="#ec723b" fill-opacity="1"><g transform="translate(187.242079, 51.189347)"><g><path d="M 13.703125 -2.546875 L 13.703125 0.5 C 11.578125 0.40625 9.640625 -0.191406 7.890625 -1.296875 C 6.148438 -2.398438 4.765625 -3.851562 3.734375 -5.65625 C 2.703125 -7.46875 2.1875 -9.4375 2.1875 -11.5625 C 2.1875 -13.738281 2.703125 -15.726562 3.734375 -17.53125 C 4.765625 -19.34375 6.148438 -20.800781 7.890625 -21.90625 C 9.640625 -23.007812 11.578125 -23.59375 13.703125 -23.65625 L 13.703125 -20.5625 C 12.242188 -20.5 10.898438 -20.054688 9.671875 -19.234375 C 8.441406 -18.421875 7.453125 -17.351562 6.703125 -16.03125 C 5.960938 -14.71875 5.59375 -13.226562 5.59375 -11.5625 C 5.59375 -9.976562 5.945312 -8.507812 6.65625 -7.15625 C 7.375 -5.8125 8.347656 -4.726562 9.578125 -3.90625 C 10.804688 -3.09375 12.179688 -2.640625 13.703125 -2.546875 Z M 14.609375 -20.5625 L 14.609375 -23.65625 C 16.785156 -23.59375 18.738281 -23 20.46875 -21.875 C 22.195312 -20.757812 23.566406 -19.296875 24.578125 -17.484375 C 25.597656 -15.679688 26.109375 -13.707031 26.109375 -11.5625 C 26.109375 -9.4375 25.597656 -7.476562 24.578125 -5.6875 C 23.566406 -3.894531 22.195312 -2.4375 20.46875 -1.3125 C 18.738281 -0.195312 16.785156 0.40625 14.609375 0.5 L 14.609375 -2.546875 C 16.148438 -2.640625 17.535156 -3.101562 18.765625 -3.9375 C 19.992188 -4.769531 20.960938 -5.851562 21.671875 -7.1875 C 22.390625 -8.519531 22.75 -9.976562 22.75 -11.5625 C 22.75 -13.164062 22.390625 -14.632812 21.671875 -15.96875 C 20.960938 -17.300781 19.992188 -18.375 18.765625 -19.1875 C 17.535156 -20.007812 16.148438 -20.46875 14.609375 -20.5625 Z M 14.609375 -20.5625 "/></g></g></g><g fill="#ec723b" fill-opacity="1"><g transform="translate(214.810221, 51.189347)"><g><path d="M 12.28125 0.5 C 10.675781 0.5 9.179688 0.148438 7.796875 -0.546875 C 6.421875 -1.242188 5.320312 -2.34375 4.5 -3.84375 C 3.6875 -5.34375 3.28125 -7.304688 3.28125 -9.734375 L 3.28125 -22.4375 C 3.28125 -22.914062 3.503906 -23.15625 3.953125 -23.15625 L 6 -23.15625 C 6.457031 -23.15625 6.6875 -22.914062 6.6875 -22.4375 L 6.6875 -10.640625 C 6.6875 -7.941406 7.289062 -5.925781 8.5 -4.59375 C 9.71875 -3.257812 11.253906 -2.59375 13.109375 -2.59375 C 14.191406 -2.59375 15.25 -2.914062 16.28125 -3.5625 C 17.320312 -4.21875 18.128906 -5.195312 18.703125 -6.5 L 18.703125 -2.78125 C 16.972656 -0.59375 14.832031 0.5 12.28125 0.5 Z M 23.015625 -22.4375 L 23.015625 -0.734375 C 23.015625 -0.242188 22.789062 0 22.34375 0 L 21.203125 0 C 20.628906 0 20.25 -0.148438 20.0625 -0.453125 L 19.609375 -1.8125 L 19.609375 -22.4375 C 19.609375 -22.914062 19.835938 -23.15625 20.296875 -23.15625 L 22.34375 -23.15625 C 22.789062 -23.15625 23.015625 -22.914062 23.015625 -22.4375 Z M 23.015625 -22.4375 "/></g></g></g><g fill="#ec723b" fill-opacity="1"><g transform="translate(241.604998, 51.189347)"><g><path d="M 17.65625 -0.59375 C 16.738281 -0.0390625 15.851562 0.273438 15 0.359375 C 14.15625 0.453125 13.582031 0.5 13.28125 0.5 C 10.28125 0.5 8.15625 -0.394531 6.90625 -2.1875 C 5.664062 -3.976562 5.046875 -6.445312 5.046875 -9.59375 L 5.046875 -19.46875 L 8.421875 -19.46875 L 8.421875 -9.875 C 8.421875 -7.207031 8.835938 -5.328125 9.671875 -4.234375 C 10.503906 -3.140625 11.832031 -2.59375 13.65625 -2.59375 C 14.289062 -2.59375 14.828125 -2.628906 15.265625 -2.703125 C 15.703125 -2.785156 16.210938 -2.976562 16.796875 -3.28125 C 17.003906 -3.394531 17.171875 -3.453125 17.296875 -3.453125 C 17.472656 -3.453125 17.609375 -3.269531 17.703125 -2.90625 L 17.96875 -1.453125 C 18.09375 -1.054688 17.988281 -0.769531 17.65625 -0.59375 Z M 17.328125 -22.4375 L 17.328125 -21.0625 C 17.328125 -20.582031 17.101562 -20.34375 16.65625 -20.34375 L 2.828125 -20.34375 C 2.335938 -20.34375 2.09375 -20.582031 2.09375 -21.0625 L 2.09375 -22.4375 C 2.09375 -22.738281 2.144531 -22.929688 2.25 -23.015625 C 2.351562 -23.109375 2.546875 -23.15625 2.828125 -23.15625 L 5.046875 -23.15625 L 5.046875 -27.84375 C 5.046875 -28.332031 5.273438 -28.578125 5.734375 -28.578125 L 7.734375 -28.578125 C 8.191406 -28.578125 8.421875 -28.332031 8.421875 -27.84375 L 8.421875 -23.15625 L 16.65625 -23.15625 C 16.894531 -23.15625 17.066406 -23.109375 17.171875 -23.015625 C 17.273438 -22.929688 17.328125 -22.738281 17.328125 -22.4375 Z M 17.328125 -22.4375 "/></g></g></g><g fill="#ec723b" fill-opacity="1"><g transform="translate(260.802563, 51.189347)"><g><path d="M 22.609375 -4.734375 L 23.484375 -3.6875 C 23.785156 -3.289062 23.785156 -2.957031 23.484375 -2.6875 C 22.453125 -1.65625 21.082031 -0.863281 19.375 -0.3125 C 17.675781 0.226562 15.992188 0.5 14.328125 0.5 C 12.054688 0.5 10.003906 -0.046875 8.171875 -1.140625 C 6.335938 -2.234375 4.878906 -3.6875 3.796875 -5.5 C 2.722656 -7.320312 2.1875 -9.34375 2.1875 -11.5625 C 2.1875 -13.675781 2.6875 -15.628906 3.6875 -17.421875 C 4.6875 -19.210938 6.039062 -20.675781 7.75 -21.8125 C 9.46875 -22.957031 11.390625 -23.570312 13.515625 -23.65625 L 13.515625 -20.796875 C 12.023438 -20.671875 10.6875 -20.191406 9.5 -19.359375 C 8.320312 -18.523438 7.390625 -17.457031 6.703125 -16.15625 C 6.023438 -14.851562 5.6875 -13.425781 5.6875 -11.875 L 5.6875 -11.234375 C 5.6875 -9.628906 6.078125 -8.164062 6.859375 -6.84375 C 7.648438 -5.53125 8.707031 -4.476562 10.03125 -3.6875 C 11.351562 -2.894531 12.832031 -2.5 14.46875 -2.5 C 15.5625 -2.5 16.75 -2.679688 18.03125 -3.046875 C 19.320312 -3.410156 20.515625 -3.988281 21.609375 -4.78125 C 21.847656 -4.925781 22.03125 -5 22.15625 -5 C 22.34375 -5 22.492188 -4.910156 22.609375 -4.734375 Z M 25.34375 -11.109375 C 25.34375 -10.828125 25.300781 -10.632812 25.21875 -10.53125 C 25.144531 -10.425781 24.957031 -10.375 24.65625 -10.375 L 6.640625 -10.375 C 6.429688 -11.132812 6.429688 -11.921875 6.640625 -12.734375 L 21.84375 -12.734375 C 21.8125 -13.984375 21.5 -15.207031 20.90625 -16.40625 C 20.3125 -17.601562 19.46875 -18.609375 18.375 -19.421875 C 17.289062 -20.242188 15.972656 -20.703125 14.421875 -20.796875 L 14.421875 -23.65625 C 16.722656 -23.59375 18.6875 -22.976562 20.3125 -21.8125 C 21.9375 -20.644531 23.179688 -19.117188 24.046875 -17.234375 C 24.910156 -15.359375 25.34375 -13.316406 25.34375 -11.109375 Z M 25.34375 -11.109375 "/></g></g></g></svg>